<svg xmlns="http://www.w3.org/2000/svg" xmlns:xlink="http://www.w3.org/1999/xlink" width="21" height="21" viewBox="0 0 21 21"><defs><path id="jvusa" d="M1559.74 133.74a.87.87 0 0 1-1.24 0l-4.72-4.71a8.96 8.96 0 0 1-5.74 2.05 8.98 8.98 0 0 1-6.4-2.64 8.98 8.98 0 0 1-2.64-6.4c0-2.42.94-4.69 2.65-6.4a8.98 8.98 0 0 1 6.4-2.64c2.4 0 4.68.94 6.38 2.65a8.98 8.98 0 0 1 2.65 6.4c0 2.1-.72 4.12-2.06 5.73l4.72 4.72c.34.35.34.9 0 1.24zm-11.7-4.4a7.25 7.25 0 0 0 7.29-7.3c0-1.95-.76-3.78-2.14-5.15a7.25 7.25 0 0 0-5.15-2.14c-1.95 0-3.78.76-5.16 2.14a7.25 7.25 0 0 0 0 10.3 7.22 7.22 0 0 0 5.16 2.14z"/></defs><g><g transform="translate(-1539 -113)"><use fill="#fff" xlink:href="#jvusa"/></g></g></svg>